<svg width="25" height="25" viewBox="0 0 25 25" fill="none" xmlns="http://www.w3.org/2000/svg">
    <g clip-path="url(#clip0_285_8)">
        <path d="M21.719 5.47901C21.2083 4.96802 20.6018 4.56266 19.9344 4.2861C19.2669 4.00953 18.5515 3.86719 17.829 3.86719C17.1065 3.86719 16.3911 4.00953 15.7237 4.2861C15.0562 4.56266 14.4498 4.96802 13.939 5.47901L12.879 6.53901L11.819 5.47901C10.7873 4.44732 9.38806 3.86772 7.92903 3.86772C6.46999 3.86772 5.07072 4.44732 4.03903 5.47901C3.00733 6.51071 2.42773 7.90998 2.42773 9.36901C2.42773 10.828 3.00733 12.2273 4.03903 13.259L5.09902 14.319L12.879 22.099L20.659 14.319L21.719 13.259C22.23 12.7483 22.6354 12.1418 22.9119 11.4744C23.1885 10.8069 23.3309 10.0915 23.3309 9.36901C23.3309 8.64653 23.1885 7.93112 22.9119 7.26366C22.6354 6.5962 22.23 5.98977 21.719 5.47901Z" stroke="#0e0eba" stroke-width="2" stroke-linecap="round" stroke-linejoin="round"/>
    </g>
    <defs>
        <clipPath id="clip0_285_8">
            <rect width="24" height="24" fill="white" transform="translate(0.878906 0.869141)"/>
        </clipPath>
    </defs>
</svg>
